<?xml version="1.0" encoding="utf-8"?>
<!-- Generator: Adobe Illustrator 23.0.5, SVG Export Plug-In . SVG Version: 6.00 Build 0)  -->
<svg version="1.1" id="Layer_1" xmlns="http://www.w3.org/2000/svg" xmlns:xlink="http://www.w3.org/1999/xlink" x="0px" y="0px"
	 viewBox="0 0 72 30" style="enable-background:new 0 0 72 30;" xml:space="preserve">
<style type="text/css">
	.st0{display:none;fill:#50CD89;}
	.st1{display:none;fill:#FFFFFF;}
	.st2{display:none;fill:#181C32;}
	.st3{fill-rule:evenodd;clip-rule:evenodd;fill:#FFFFFF;}
	.st4{fill-rule:evenodd;clip-rule:evenodd;fill:#6C8BC6;}
	.st5{fill:#FFFFFF;}
</style>
<path class="st0" d="M12,1.7c1.9-1.1,4.1-1.1,6,0l7,4c1.9,1.1,3,3.1,3,5.2V19c0,2.1-1.1,4.1-3,5.2l-7,4c-1.9,1.1-4.1,1.1-6,0l-7-4
	c-1.9-1.1-3-3.1-3-5.2V11c0-2.1,1.1-4.1,3-5.2L12,1.7z"/>
<path class="st1" d="M17.4,12c-0.1-0.6-0.3-1-0.8-1.3c-0.4-0.3-1-0.5-1.7-0.5c-0.5,0-0.9,0.1-1.3,0.2c-0.4,0.1-0.6,0.4-0.8,0.6
	s-0.3,0.5-0.3,0.9c0,0.3,0.1,0.5,0.2,0.7c0.1,0.2,0.3,0.4,0.5,0.5c0.2,0.1,0.5,0.3,0.7,0.3c0.3,0.1,0.5,0.2,0.8,0.2l1.2,0.3
	c0.5,0.1,1,0.3,1.4,0.5c0.5,0.2,0.9,0.4,1.2,0.7c0.4,0.3,0.7,0.7,0.9,1.1c0.2,0.4,0.3,0.9,0.3,1.5c0,0.8-0.2,1.4-0.6,2
	c-0.4,0.6-1,1-1.7,1.4c-0.7,0.3-1.6,0.5-2.7,0.5c-1,0-1.9-0.2-2.7-0.5c-0.7-0.3-1.3-0.8-1.8-1.4c-0.4-0.6-0.6-1.3-0.7-2.2h2.3
	c0,0.5,0.2,0.8,0.4,1.1c0.2,0.3,0.6,0.5,1,0.7c0.4,0.1,0.8,0.2,1.3,0.2c0.5,0,1-0.1,1.4-0.2c0.4-0.2,0.7-0.4,0.9-0.7
	c0.2-0.3,0.3-0.6,0.3-1c0-0.3-0.1-0.6-0.3-0.8c-0.2-0.2-0.5-0.4-0.8-0.6c-0.3-0.2-0.8-0.3-1.2-0.4l-1.5-0.4
	c-1.1-0.3-1.9-0.7-2.6-1.3c-0.6-0.6-0.9-1.3-0.9-2.3c0-0.8,0.2-1.4,0.6-2c0.4-0.6,1-1,1.7-1.3c0.7-0.3,1.5-0.5,2.5-0.5
	c0.9,0,1.7,0.2,2.4,0.5c0.7,0.3,1.3,0.8,1.7,1.3c0.4,0.6,0.6,1.2,0.6,2H17.4z"/>
<path class="st2" d="M42.4,12c-0.1-0.6-0.3-1-0.8-1.3c-0.4-0.3-1-0.5-1.7-0.5c-0.5,0-0.9,0.1-1.3,0.2c-0.4,0.1-0.6,0.4-0.8,0.6
	s-0.3,0.5-0.3,0.9c0,0.3,0.1,0.5,0.2,0.7c0.1,0.2,0.3,0.4,0.5,0.5c0.2,0.1,0.5,0.3,0.7,0.3c0.3,0.1,0.5,0.2,0.8,0.2l1.2,0.3
	c0.5,0.1,1,0.3,1.4,0.5c0.5,0.2,0.9,0.4,1.2,0.7c0.4,0.3,0.7,0.7,0.9,1.1c0.2,0.4,0.3,0.9,0.3,1.5c0,0.8-0.2,1.4-0.6,2
	c-0.4,0.6-1,1-1.7,1.4c-0.7,0.3-1.6,0.5-2.7,0.5c-1,0-1.9-0.2-2.7-0.5c-0.7-0.3-1.3-0.8-1.8-1.4c-0.4-0.6-0.6-1.3-0.7-2.2h2.3
	c0,0.5,0.2,0.8,0.4,1.1c0.2,0.3,0.6,0.5,1,0.7c0.4,0.1,0.8,0.2,1.3,0.2c0.5,0,1-0.1,1.4-0.2c0.4-0.2,0.7-0.4,0.9-0.7
	c0.2-0.3,0.3-0.6,0.3-1c0-0.3-0.1-0.6-0.3-0.8c-0.2-0.2-0.5-0.4-0.8-0.6c-0.3-0.2-0.8-0.3-1.2-0.4l-1.5-0.4
	c-1.1-0.3-1.9-0.7-2.6-1.3c-0.6-0.6-0.9-1.3-0.9-2.3c0-0.8,0.2-1.4,0.6-2c0.4-0.6,1-1,1.7-1.3c0.7-0.3,1.5-0.5,2.5-0.5
	c0.9,0,1.7,0.2,2.4,0.5c0.7,0.3,1.3,0.8,1.7,1.3c0.4,0.6,0.6,1.2,0.6,2H42.4z M49.7,21.7c-0.6,0-1.2-0.1-1.7-0.3
	c-0.5-0.2-0.9-0.6-1.2-1c-0.3-0.4-0.4-1-0.4-1.6c0-0.6,0.1-1,0.3-1.4c0.2-0.4,0.5-0.7,0.8-0.9c0.4-0.2,0.8-0.4,1.2-0.5
	c0.4-0.1,0.9-0.2,1.4-0.2c0.6-0.1,1-0.1,1.4-0.2c0.4-0.1,0.6-0.1,0.8-0.2c0.2-0.1,0.2-0.3,0.2-0.5v0c0-0.5-0.1-0.9-0.4-1.1
	c-0.3-0.3-0.7-0.4-1.2-0.4c-0.6,0-1,0.1-1.3,0.4c-0.3,0.2-0.5,0.5-0.7,0.9l-2.2-0.3c0.2-0.6,0.5-1.1,0.8-1.5
	c0.4-0.4,0.9-0.7,1.4-0.9c0.6-0.2,1.2-0.3,1.9-0.3c0.5,0,0.9,0.1,1.4,0.2c0.5,0.1,0.9,0.3,1.3,0.5c0.4,0.3,0.7,0.6,0.9,1
	c0.2,0.4,0.4,1,0.4,1.6v6.6h-2.2v-1.3h-0.1c-0.1,0.3-0.3,0.5-0.6,0.8c-0.3,0.2-0.6,0.4-1,0.6C50.7,21.6,50.2,21.7,49.7,21.7z
	 M50.3,20c0.5,0,0.9-0.1,1.2-0.3c0.3-0.2,0.6-0.4,0.8-0.7c0.2-0.3,0.3-0.6,0.3-1v-1.2c-0.1,0.1-0.2,0.1-0.4,0.2
	c-0.2,0.1-0.4,0.1-0.6,0.1c-0.2,0-0.4,0.1-0.6,0.1c-0.2,0-0.4,0.1-0.5,0.1c-0.3,0-0.7,0.1-0.9,0.2c-0.3,0.1-0.5,0.3-0.6,0.4
	c-0.2,0.2-0.2,0.4-0.2,0.7c0,0.4,0.2,0.7,0.5,1C49.4,19.9,49.8,20,50.3,20z M63.5,17.4v-5.7h2.3v9.8h-2.2v-1.7h-0.1
	c-0.2,0.5-0.6,1-1.1,1.3c-0.5,0.3-1.1,0.5-1.9,0.5c-0.6,0-1.2-0.1-1.7-0.4c-0.5-0.3-0.9-0.7-1.2-1.3c-0.3-0.6-0.4-1.2-0.4-2v-6.3
	h2.3v5.9c0,0.6,0.2,1.1,0.5,1.5c0.3,0.4,0.8,0.5,1.3,0.5c0.3,0,0.7-0.1,1-0.2s0.6-0.4,0.8-0.7C63.4,18.3,63.5,17.9,63.5,17.4z
	 M70.5,8.4v13.1h-2.3V8.4H70.5z"/>
<g>
	<g>
		<path class="st3" d="M13.9,17.6c1.6,0,2.8,1.3,2.8,2.8c0,0.6-0.2,1.1-0.5,1.6l0,0l0,0c-0.6,0.8-1.6,1.6-2.3,2.3
			c-0.7-0.7-1.7-1.5-2.3-2.3l0,0l0,0c-0.3-0.5-0.5-1-0.5-1.6C11.1,18.9,12.4,17.6,13.9,17.6"/>
		<path class="st3" d="M13.4,16.7c-1.7,0.3-3.1,1.8-3.1,3.6c0,0.6,0.2,1.2,0.4,1.7c-0.8,0.7-1.6,1.4-2.2,2.1c-2-2-4.7-4-6.3-6.3
			l-0.1-0.1l0,0c-0.7-1-1.2-2.3-1.3-3.6c1.1-2.1,3.3-3.6,5.9-3.6c1.2,0,2.3,0.3,3.3,0.8C11.9,12.5,13.2,14.4,13.4,16.7"/>
		<path class="st4" d="M8.5,5.6c4.3,0,7.7,3.5,7.7,7.7c0,1.3-0.3,2.6-0.9,3.6c-0.3-0.1-0.6-0.2-0.9-0.2c-0.1-2.8-1.7-5.2-4-6.5
			c-1.1-0.6-2.4-1-3.7-1c-2.3,0-4.4,1-5.8,2.6C1.5,8.3,4.7,5.6,8.5,5.6"/>
	</g>
	<g>
		<path class="st5" d="M36.1,17.5l0,1.6c0,0.9-0.3,1.3-1.4,1.4v-3h0c0-1.6,1.3-2.8,2.9-2.8v0l0,0c1.6,0,2.8,1.3,2.9,2.8h0v3
			c-1.1,0-1.4-0.5-1.4-1.4l0-1.6c0-0.6-0.5-1.3-1.4-1.4c-1-0.1-1.8,0.6-2.1,1.3c0.2-0.3,0.5-0.5,0.7-0.7
			C36.2,17,36.1,17.2,36.1,17.5"/>
		<path class="st5" d="M17.7,17.5L17.7,17.5L17.7,17.5c0-1.6,1.3-2.9,2.9-2.9c1.5,0,2.7,1.1,2.9,2.4h-0.9c-0.4,0-0.5,0-0.7-0.3
			c-0.1-0.1-0.2-0.2-0.3-0.3C21.3,16.1,21,16,20.6,16c-0.8,0-1.5,0.7-1.5,1.5h0l0,0v0c0,0.8,0.7,1.5,1.5,1.5c0.5,0,1-0.3,1.2-0.6
			c0.3-0.4,0.3-0.4,0.8-0.4h0.9l0,0h0l0,2.4c0,1.6-3,2.3-3.2,3.4V22c0.5-0.8,1.8-0.8,1.8-1.8c0.2-0.1,0.7-0.4,0.9-0.9
			c-0.4,0.4-0.8,0.8-1.4,1c-0.3,0.1-0.7,0.2-1,0.2C19,20.4,17.7,19.1,17.7,17.5z"/>
		<path class="st5" d="M25.5,17.5l0,1.6c0,0.9-0.3,1.3-1.4,1.4v-3h0c0-1.6,1.3-2.8,2.9-2.8v0l0,0c0.3,0,0.6,0,0.9,0.1v1.6
			c-0.2-0.1-0.5-0.2-0.7-0.3c-1-0.1-1.8,0.6-2.1,1.3c0.2-0.3,0.5-0.5,0.7-0.7C25.6,17,25.6,17.2,25.5,17.5"/>
		<path class="st5" d="M51,17.5L51,17.5L51,17.5c0-1.6,1.3-2.9,2.9-2.9c1.5,0,2.7,1.1,2.9,2.4h-0.9c-0.4,0-0.5,0-0.7-0.3
			c-0.1-0.1-0.2-0.2-0.3-0.3c-0.3-0.2-0.6-0.3-0.9-0.3c-0.8,0-1.5,0.7-1.5,1.5v0v0c0,0.8,0.7,1.5,1.5,1.5c0.5,0,1-0.3,1.2-0.6
			c0.3-0.4,0.3-0.4,0.8-0.4h0.9l0,0h0v1.5c0,0.2,0,0.8-0.9,0.9h-0.6c0-0.1,0-0.2,0-0.2c0.2-0.1,0.7-0.4,0.9-0.9
			c-0.4,0.4-0.8,0.8-1.4,1c-0.3,0.1-0.7,0.2-1,0.2C52.3,20.5,51,19.1,51,17.5L51,17.5z"/>
		<path class="st5" d="M28.2,17.5L28.2,17.5L28.2,17.5c0-1.6,1.3-2.9,2.9-2.9c1.5,0,2.7,1.1,2.9,2.4h-0.9c-0.4,0-0.5,0-0.7-0.3
			c-0.1-0.1-0.2-0.2-0.3-0.3c-0.3-0.2-0.6-0.3-0.9-0.3c-0.8,0-1.5,0.7-1.5,1.5v0v0c0,0.8,0.7,1.5,1.5,1.5c0.5,0,1-0.3,1.2-0.6
			c0.3-0.4,0.3-0.4,0.8-0.4H34l0,0h0l0,1.5c0,0.2,0,0.8-0.9,0.9h-0.6c0-0.1,0-0.2,0-0.2c0.2-0.1,0.7-0.4,0.9-0.9
			c-0.4,0.4-0.8,0.8-1.4,1c-0.3,0.1-0.7,0.2-1,0.2C29.5,20.5,28.2,19.1,28.2,17.5L28.2,17.5z"/>
		<path class="st5" d="M41.2,17.5L41.2,17.5L41.2,17.5c0,1.6,1.3,2.9,2.9,2.9c1.5,0,2.7-1.1,2.9-2.4h-0.9c-0.4,0-0.5,0-0.7,0.3
			c-0.1,0.1-0.2,0.2-0.3,0.3c-0.3,0.2-0.6,0.3-0.9,0.3c-0.8,0-1.5-0.7-1.5-1.5v0v0c0-0.8,0.7-1.5,1.5-1.5c0.5,0,1,0.3,1.2,0.6
			c0.3,0.4,0.3,0.4,0.8,0.4H47l0,0h0l0-4.5c0-1.2-0.7-1.5-1.4-1.4v3.8c0.2,0.1,0.6,0.4,0.9,0.9c-0.4-0.4-0.8-0.8-1.4-1
			c-0.3-0.1-0.7-0.2-1-0.2C42.5,14.6,41.2,15.9,41.2,17.5L41.2,17.5z"/>
		<path class="st5" d="M57.3,17.5L57.3,17.5L57.3,17.5c0,1.6,1.3,2.9,2.9,2.9c1.5,0,2.7-1.1,2.9-2.4h-0.9c-0.4,0-0.5,0-0.7,0.3
			c-0.1,0.1-0.2,0.2-0.3,0.3c-0.3,0.2-0.6,0.3-0.9,0.3c-0.8,0-1.5-0.7-1.5-1.5v0v0c0-0.8,0.7-1.5,1.5-1.5c0.5,0,1,0.3,1.2,0.6
			c0.3,0.4,0.3,0.4,0.8,0.4h0.9l0,0h0l0-4.5c0-1.2-0.7-1.5-1.4-1.4v3.8c0.2,0.1,0.6,0.4,0.9,0.9c-0.4-0.4-0.8-0.8-1.4-1
			c-0.3-0.1-0.7-0.2-1-0.2C58.6,14.6,57.3,15.9,57.3,17.5L57.3,17.5z"/>
		<path class="st5" d="M49.2,17.6l0-5.2c0-0.9-0.3-1.3-1.4-1.4v6.6h0c0,1.6,1.3,2.8,2.9,2.8l0,0c0,0,0.1,0,0.1,0V19
			c-1,0-1.8-0.6-2.1-1.3c0.2,0.3,0.5,0.5,0.7,0.7C49.3,18.1,49.2,17.9,49.2,17.6"/>
		<path class="st5" d="M68.2,20.8v-0.4c0.5-0.2,0.9-0.9,1-1.4c-0.5,0.9-1.4,1.5-2.5,1.5v0c-1.6,0-2.8-1.3-2.9-2.8h0v-3
			c1.1,0,1.4,0.5,1.4,1.4v1.6c0,0.2,0.1,0.5,0.2,0.7c-0.3-0.2-0.5-0.4-0.7-0.7c0.3,0.7,1.1,1.4,2.1,1.3c0.8-0.1,1.3-0.7,1.4-1.4
			l0-1.6c0-0.9,0.3-1.3,1.4-1.4v3h0c0,0.1,0,0.1,0,0.2v3h0c0.1,0.9,1.3,1,1.8,1.7v1.8c-0.2-1.1-3.2-1.8-3.2-3.4L68.2,20.8L68.2,20.8
			z"/>
		<path class="st3" d="M24.1,22.3h6.9c0,0,0.1,0,0.1,0.1c0,0,0,0.1-0.1,0.1h-6.9C24,22.4,24,22.4,24.1,22.3
			C24,22.3,24,22.3,24.1,22.3 M60,22.3h6.9c0,0,0.1,0,0.1,0.1c0,0,0,0.1-0.1,0.1H60C60,22.4,60,22.4,60,22.3
			C60,22.3,60,22.3,60,22.3z"/>
		<path class="st5" d="M58.2,23.5h-0.5c-0.2,0-0.2-0.1-0.2-0.2V22h-0.2v-0.4h0.2v-0.5h0.4v0.5h0.3V22h-0.3v1.2h0.3V23.5z M57,23.3
			c0,0.2-0.1,0.2-0.2,0.2h-0.7c-0.2,0-0.2-0.1-0.2-0.2v-0.4h0.4v0.3h0.4v-0.3L56,22.5c-0.1-0.1-0.1-0.1-0.1-0.2v-0.4
			c0-0.2,0.1-0.2,0.2-0.2h0.7c0.2,0,0.2,0.1,0.2,0.2v0.4h-0.4v-0.3h-0.4v0.3l0.7,0.4c0.1,0,0.1,0.1,0.1,0.2V23.3z M55.5,23.5h-0.4
			v-0.1c-0.1,0-0.2,0-0.3,0c-0.1,0-0.2,0-0.3,0c-0.2,0-0.2-0.1-0.2-0.2v-1.7h0.4v1.5l0.4,0v-1.5h0.4V23.5z M54,22.4h-0.4V22l-0.3,0
			v1.5h-0.4v-1.9h0.4v0.1c0.1,0,0.2,0,0.3,0c0.1,0,0.2,0,0.3,0c0.2,0,0.2,0.1,0.2,0.2V22.4z M52.6,23.5h-0.5c-0.2,0-0.2-0.1-0.2-0.2
			V22h-0.2v-0.4h0.2v-0.5h0.4v0.5h0.3V22h-0.3v1.2h0.3V23.5z M50.2,23.1V22H50c-0.1,0-0.1,0-0.1,0.1V23c0,0.1,0,0.1,0.1,0.1
			C50,23.2,50.1,23.1,50.2,23.1z M50.7,23.5h-0.4v-0.1c-0.3,0.1-0.5,0.1-0.5,0.1c-0.1,0-0.2,0-0.3-0.1c-0.1-0.1-0.1-0.1-0.1-0.3V22
			c0-0.2,0.1-0.3,0.2-0.3c0.1,0,0.2-0.1,0.4-0.1c0,0,0.1,0,0.2,0c0.1,0,0.1,0,0.1,0v-1h0.4V23.5z M49.1,23.5h-0.4V22l-0.4,0v1.5
			h-0.4v-1.9h0.4v0.1c0.1,0,0.2,0,0.3,0c0.1,0,0.2,0,0.3,0c0.2,0,0.2,0.1,0.2,0.2V23.5z M47.1,23.2v-0.5h-0.4v0.5L47.1,23.2z
			 M47.5,23.5h-0.4v-0.1c-0.1,0-0.2,0-0.3,0c-0.1,0-0.2,0-0.3,0c-0.2,0-0.2-0.1-0.2-0.2v-0.7c0-0.2,0.1-0.2,0.2-0.2h0.6v-0.4h-0.4
			v0.3h-0.4v-0.4c0-0.2,0.1-0.2,0.2-0.2h0.7c0.2,0,0.2,0.1,0.2,0.2V23.5z M45.2,23.5h-0.4V22l-0.4,0v1.5H44v-1.9h0.4v0.1
			c0.1,0,0.2,0,0.3,0c0.1,0,0.2,0,0.3,0c0.2,0,0.2,0.1,0.2,0.2V23.5z M43.2,23.1V22h-0.4v1.2H43.2z M43.6,23.3
			c0,0.2-0.1,0.2-0.2,0.2h-0.8c-0.2,0-0.2-0.1-0.2-0.2v-1.4c0-0.2,0.1-0.2,0.2-0.2h0.8c0.2,0,0.2,0.1,0.2,0.2V23.3z M42.1,23.5h-0.4
			v-1.9h0.4V23.5z M42.1,21.3h-0.4v-0.4h0.4V21.3z M41.4,23.5h-0.5c-0.2,0-0.2-0.1-0.2-0.2V22h-0.2v-0.4h0.2v-0.5h0.4v0.5h0.3V22
			h-0.3v1.2h0.3V23.5z M40.3,23.3c0,0.2-0.1,0.2-0.2,0.2h-0.7c-0.2,0-0.2-0.1-0.2-0.2v-1.4c0-0.2,0.1-0.2,0.2-0.2H40
			c0.2,0,0.2,0.1,0.2,0.2v0.5h-0.4V22h-0.4v1.2h0.4v-0.4h0.4V23.3z M38.3,22.4v-0.5h-0.4v0.5H38.3z M38.7,23.3
			c0,0.2-0.1,0.2-0.2,0.2h-0.7c-0.2,0-0.2-0.1-0.2-0.2v-1.4c0-0.2,0.1-0.2,0.2-0.2h0.7c0.2,0,0.2,0.1,0.2,0.2v0.7l-0.1,0.1h-0.7v0.5
			h0.4v-0.3h0.4V23.3z M37.4,20.9H37v0.7h0.3V22H37v1.5h-0.4V22h-0.2v-0.4h0.2v-0.8c0-0.2,0.1-0.2,0.2-0.2h0.5V20.9z M36.3,22.4
			h-0.4V22l-0.3,0v1.5h-0.4v-1.9h0.4v0.1c0.1,0,0.2,0,0.3,0c0.1,0,0.2,0,0.3,0c0.2,0,0.2,0.1,0.2,0.2V22.4z M34.4,22.4v-0.5H34v0.5
			H34.4z M34.8,23.3c0,0.2-0.1,0.2-0.2,0.2h-0.7c-0.2,0-0.2-0.1-0.2-0.2v-1.4c0-0.2,0.1-0.2,0.2-0.2h0.7c0.2,0,0.2,0.1,0.2,0.2v0.7
			l-0.1,0.1H34v0.5h0.4v-0.3h0.4V23.3z M32.8,23v-1l-0.4,0v1.2h0.3C32.8,23.1,32.8,23.1,32.8,23z M33.2,23.1c0,0.2-0.1,0.3-0.2,0.3
			c-0.1,0-0.2,0.1-0.4,0.1c0,0-0.1,0-0.2,0c-0.1,0-0.1,0-0.1,0v0.7H32v-2.6h0.4v0.1c0.1,0,0.2,0,0.3,0c0.1,0,0.2,0,0.3,0
			c0.2,0,0.2,0.1,0.2,0.2V23.1z"/>
	</g>
</g>
</svg>
